<svg width="866" height="861" xmlns="http://www.w3.org/2000/svg" xmlns:xlink="http://www.w3.org/1999/xlink" xml:space="preserve" overflow="hidden"><defs><clipPath id="clip0"><rect x="1127" y="1384" width="866" height="861"/></clipPath><linearGradient x1="1987.5" y1="1474.5" x2="1134.5" y2="1474.5" gradientUnits="userSpaceOnUse" spreadMethod="reflect" id="fill1"><stop offset="0" stop-color="#A88BFB" stop-opacity="1"/><stop offset="0.5" stop-color="#C4B5FE" stop-opacity="1"/><stop offset="1" stop-color="#F3E9FF" stop-opacity="1"/></linearGradient><radialGradient cx="1181793" cy="236913" r="1205306" fy="236913" gradientUnits="userSpaceOnUse" spreadMethod="pad" id="fill2" gradientTransform="matrix(0.000360892 0 0 0.000360892 1134.5 1730.5)"><stop offset="0" stop-color="#95ABEA" stop-opacity="1"/><stop offset="0.5" stop-color="#BFCBF0" stop-opacity="1"/><stop offset="1" stop-color="#E0E5F7" stop-opacity="1"/></radialGradient><linearGradient x1="1134.5" y1="2157" x2="1987.5" y2="2157" gradientUnits="userSpaceOnUse" spreadMethod="reflect" id="fill3"><stop offset="0" stop-color="#EA8C8C" stop-opacity="1"/><stop offset="0.5" stop-color="#F0BABA" stop-opacity="1"/><stop offset="1" stop-color="#F7DEDE" stop-opacity="1"/></linearGradient></defs><g clip-path="url(#clip0)" transform="translate(-1127 -1384)"><path d="M1134.5 1474.5C1134.5 1427.56 1172.56 1389.5 1219.5 1389.5L1902.5 1389.5C1949.44 1389.5 1987.5 1427.56 1987.5 1474.5 1987.5 1521.44 1949.44 1559.5 1902.5 1559.5L1219.5 1559.5C1172.56 1559.5 1134.5 1521.44 1134.5 1474.5Z" stroke="#FFFFFF" stroke-width="4.58333" stroke-linecap="butt" stroke-linejoin="miter" stroke-miterlimit="8" stroke-opacity="1" fill="url(#fill1)" fill-rule="evenodd"/><path d="M1134.5 1645C1134.5 1597.78 1172.78 1559.5 1220 1559.5L1476 1559.5C1523.22 1559.5 1561.5 1597.78 1561.5 1645L1561.5 1645C1561.5 1692.22 1523.22 1730.5 1476 1730.5L1220 1730.5C1172.78 1730.5 1134.5 1692.22 1134.5 1645Z" stroke="#FFFFFF" stroke-width="4.58333" stroke-linecap="butt" stroke-linejoin="miter" stroke-miterlimit="8" stroke-opacity="1" fill="#EDEDED" fill-rule="evenodd" fill-opacity="1"/><path d="M1134.5 1816C1134.5 1768.78 1172.78 1730.5 1220 1730.5L1902 1730.5C1949.22 1730.5 1987.5 1768.78 1987.5 1816 1987.5 1863.22 1949.22 1901.5 1902 1901.5L1220 1901.5C1172.78 1901.5 1134.5 1863.22 1134.5 1816Z" stroke="#FFFFFF" stroke-width="4.58333" stroke-linecap="butt" stroke-linejoin="miter" stroke-miterlimit="8" stroke-opacity="1" fill="url(#fill2)" fill-rule="evenodd"/><path d="M1561.5 1986.5C1561.5 1939.56 1599.56 1901.5 1646.5 1901.5L1902.5 1901.5C1949.44 1901.5 1987.5 1939.56 1987.5 1986.5L1987.5 1986.5C1987.5 2033.44 1949.44 2071.5 1902.5 2071.5L1646.5 2071.5C1599.56 2071.5 1561.5 2033.44 1561.5 1986.5Z" stroke="#FFFFFF" stroke-width="4.58333" stroke-linecap="butt" stroke-linejoin="miter" stroke-miterlimit="8" stroke-opacity="1" fill="#EDEDED" fill-rule="evenodd" fill-opacity="1"/><path d="M1134.5 2157C1134.5 2109.78 1172.78 2071.5 1220 2071.5L1902 2071.5C1949.22 2071.5 1987.5 2109.78 1987.5 2157 1987.5 2204.22 1949.22 2242.5 1902 2242.5L1220 2242.5C1172.78 2242.5 1134.5 2204.22 1134.5 2157Z" stroke="#FFFFFF" stroke-width="4.58333" stroke-linecap="butt" stroke-linejoin="miter" stroke-miterlimit="8" stroke-opacity="1" fill="url(#fill3)" fill-rule="evenodd"/></g></svg>